REM DIRINDEX 1\6,1\2\7,1\2\8,1\2\9,1\3\10,1\3\11,1\4\12,1\4\13,1\4\14,1\5\15,1\5\16,1\5\17
REM DIRNAME cjc040,folder01,folder02,folder03,folder04,folder05,folder06,folder07,folder08,folder09,folder10,folder11,folder12,folder13,folder14,folder15,folder16
TITLE ""
FILE "P2Q_t2_0601-0618.mp3" MP3
  TRACK 01 AUDIO
    TITLE "7:cjc040_5633"
    INDEX 01 00:00:00
  TRACK 02 AUDIO
    TITLE "0:"
    INDEX 01 00:01:13
  TRACK 03 AUDIO
    TITLE "8:cjc040_5634"
    INDEX 01 00:01:71
  TRACK 04 AUDIO
    TITLE "0:"
    INDEX 01 00:04:36
  TRACK 05 AUDIO
    TITLE "9:cjc040_5635"
    INDEX 01 00:05:18
  TRACK 06 AUDIO
    TITLE "0:"
    INDEX 01 00:06:43
  TRACK 07 AUDIO
    TITLE "7:cjc040_5636"
    INDEX 01 00:08:26
  TRACK 08 AUDIO
    TITLE "0:"
    INDEX 01 00:09:49
  TRACK 09 AUDIO
    TITLE "8:cjc040_5637"
    INDEX 01 00:10:31
  TRACK 10 AUDIO
    TITLE "0:"
    INDEX 01 00:13:33
  TRACK 11 AUDIO
    TITLE "9:cjc040_5638"
    INDEX 01 00:14:11
  TRACK 12 AUDIO
    TITLE "0:"
    INDEX 01 00:15:36
  TRACK 13 AUDIO
    TITLE "7:cjc040_5639"
    INDEX 01 00:17:18
  TRACK 14 AUDIO
    TITLE "0:"
    INDEX 01 00:18:35
  TRACK 15 AUDIO
    TITLE "8:cjc040_5640"
    INDEX 01 00:19:16
  TRACK 16 AUDIO
    TITLE "0:"
    INDEX 01 00:21:11
  TRACK 17 AUDIO
    TITLE "9:cjc040_5641"
    INDEX 01 00:21:64
  TRACK 18 AUDIO
    TITLE "0:"
    INDEX 01 00:23:14
  TRACK 19 AUDIO
    TITLE "7:cjc040_5642"
    INDEX 01 00:24:72
  TRACK 20 AUDIO
    TITLE "0:"
    INDEX 01 00:26:30
  TRACK 21 AUDIO
    TITLE "8:cjc040_5643"
    INDEX 01 00:27:16
  TRACK 22 AUDIO
    TITLE "0:"
    INDEX 01 00:29:44
  TRACK 23 AUDIO
    TITLE "9:cjc040_5644"
    INDEX 01 00:30:18
  TRACK 24 AUDIO
    TITLE "0:"
    INDEX 01 00:31:45
  TRACK 25 AUDIO
    TITLE "7:cjc040_5645"
    INDEX 01 00:33:28
  TRACK 26 AUDIO
    TITLE "0:"
    INDEX 01 00:34:43
  TRACK 27 AUDIO
    TITLE "8:cjc040_5646"
    INDEX 01 00:35:23
  TRACK 28 AUDIO
    TITLE "0:"
    INDEX 01 00:38:16
  TRACK 29 AUDIO
    TITLE "9:cjc040_5647"
    INDEX 01 00:38:71
  TRACK 30 AUDIO
    TITLE "0:"
    INDEX 01 00:40:09
  TRACK 31 AUDIO
    TITLE "7:cjc040_5648"
    INDEX 01 00:41:73
  TRACK 32 AUDIO
    TITLE "0:"
    INDEX 01 00:43:25
  TRACK 33 AUDIO
    TITLE "8:cjc040_5649"
    INDEX 01 00:44:01
  TRACK 34 AUDIO
    TITLE "0:"
    INDEX 01 00:44:71
  TRACK 35 AUDIO
    TITLE "9:cjc040_5650"
    INDEX 01 00:45:51
  TRACK 36 AUDIO
    TITLE "0:"
    INDEX 01 00:47:09
  TRACK 37 AUDIO
    TITLE "7:cjc040_5651"
    INDEX 01 00:48:67
  TRACK 38 AUDIO
    TITLE "0:"
    INDEX 01 00:50:13
  TRACK 39 AUDIO
    TITLE "8:cjc040_5652"
    INDEX 01 00:50:64
  TRACK 40 AUDIO
    TITLE "0:"
    INDEX 01 00:52:14
  TRACK 41 AUDIO
    TITLE "9:cjc040_5653"
    INDEX 01 00:52:71
  TRACK 42 AUDIO
    TITLE "0:"
    INDEX 01 00:54:19
  TRACK 43 AUDIO
    TITLE "7:cjc040_5654"
    INDEX 01 00:56:04
  TRACK 44 AUDIO
    TITLE "0:"
    INDEX 01 00:57:09
  TRACK 45 AUDIO
    TITLE "8:cjc040_5655"
    INDEX 01 00:57:62
  TRACK 46 AUDIO
    TITLE "0:"
    INDEX 01 01:00:00
  TRACK 47 AUDIO
    TITLE "9:cjc040_5656"
    INDEX 01 01:00:51
  TRACK 48 AUDIO
    TITLE "0:"
    INDEX 01 01:01:56
  TRACK 49 AUDIO
    TITLE "7:cjc040_5657"
    INDEX 01 01:03:35
  TRACK 50 AUDIO
    TITLE "0:"
    INDEX 01 01:04:68
  TRACK 51 AUDIO
    TITLE "8:cjc040_5658"
    INDEX 01 01:05:52
  TRACK 52 AUDIO
    TITLE "0:"
    INDEX 01 01:06:73
  TRACK 53 AUDIO
    TITLE "9:cjc040_5659"
    INDEX 01 01:07:57
  TRACK 54 AUDIO
    TITLE "0:"
    INDEX 01 01:09:18
  TRACK 55 AUDIO
    TITLE "7:cjc040_5660"
    INDEX 01 01:11:05
  TRACK 56 AUDIO
    TITLE "0:"
    INDEX 01 01:12:17
  TRACK 57 AUDIO
    TITLE "8:cjc040_5661"
    INDEX 01 01:12:70
  TRACK 58 AUDIO
    TITLE "0:"
    INDEX 01 01:15:31
  TRACK 59 AUDIO
    TITLE "9:cjc040_5662"
    INDEX 01 01:16:11
  TRACK 60 AUDIO
    TITLE "0:"
    INDEX 01 01:17:28
  TRACK 61 AUDIO
    TITLE "7:cjc040_5663"
    INDEX 01 01:19:11
  TRACK 62 AUDIO
    TITLE "0:"
    INDEX 01 01:20:30
  TRACK 63 AUDIO
    TITLE "8:cjc040_5664"
    INDEX 01 01:21:06
  TRACK 64 AUDIO
    TITLE "0:"
    INDEX 01 01:22:11
  TRACK 65 AUDIO
    TITLE "9:cjc040_5665"
    INDEX 01 01:22:64
  TRACK 66 AUDIO
    TITLE "0:"
    INDEX 01 01:24:12
  TRACK 67 AUDIO
    TITLE "7:cjc040_5666"
    INDEX 01 01:25:66
  TRACK 68 AUDIO
    TITLE "0:"
    INDEX 01 01:27:18
  TRACK 69 AUDIO
    TITLE "8:cjc040_5667"
    INDEX 01 01:28:02
  TRACK 70 AUDIO
    TITLE "0:"
    INDEX 01 01:30:50
  TRACK 71 AUDIO
    TITLE "9:cjc040_5668"
    INDEX 01 01:31:24
  TRACK 72 AUDIO
    TITLE "0:"
    INDEX 01 01:32:53
  TRACK 73 AUDIO
    TITLE "7:cjc040_5669"
    INDEX 01 01:34:38
  TRACK 74 AUDIO
    TITLE "0:"
    INDEX 01 01:35:57
  TRACK 75 AUDIO
    TITLE "8:cjc040_5670"
    INDEX 01 01:36:37
  TRACK 76 AUDIO
    TITLE "0:"
    INDEX 01 01:38:47
  TRACK 77 AUDIO
    TITLE "9:cjc040_5671"
    INDEX 01 01:39:25
  TRACK 78 AUDIO
    TITLE "0:"
    INDEX 01 01:40:50
  TRACK 79 AUDIO
    TITLE "7:cjc040_5672"
    INDEX 01 01:42:33
  TRACK 80 AUDIO
    TITLE "0:"
    INDEX 01 01:43:37
  TRACK 81 AUDIO
    TITLE "8:cjc040_5673"
    INDEX 01 01:44:19
  TRACK 82 AUDIO
    TITLE "0:"
    INDEX 01 01:46:53
  TRACK 83 AUDIO
    TITLE "9:cjc040_5674"
    INDEX 01 01:47:29
  TRACK 84 AUDIO
    TITLE "0:"
    INDEX 01 01:48:38
  TRACK 85 AUDIO
    TITLE "7:cjc040_5675"
    INDEX 01 01:50:21
  TRACK 86 AUDIO
    TITLE "0:"
    INDEX 01 01:51:56
  TRACK 87 AUDIO
    TITLE "8:cjc040_5676"
    INDEX 01 01:52:38
  TRACK 88 AUDIO
    TITLE "0:"
    INDEX 01 01:54:56
  TRACK 89 AUDIO
    TITLE "9:cjc040_5677"
    INDEX 01 01:55:32
  TRACK 90 AUDIO
    TITLE "0:"
    INDEX 01 01:56:71
  TRACK 91 AUDIO
    TITLE "7:cjc040_5678"
    INDEX 01 01:58:46
  TRACK 92 AUDIO
    TITLE "0:"
    INDEX 01 02:00:02
  TRACK 93 AUDIO
    TITLE "8:cjc040_5679"
    INDEX 01 02:00:59
  TRACK 94 AUDIO
    TITLE "0:"
    INDEX 01 02:03:32
  TRACK 95 AUDIO
    TITLE "9:cjc040_5680"
    INDEX 01 02:04:12
  TRACK 96 AUDIO
    TITLE "0:"
    INDEX 01 02:05:52
  TRACK 97 AUDIO
    TITLE "7:cjc040_5681"
    INDEX 01 02:07:31
  TRACK 98 AUDIO
    TITLE "0:"
    INDEX 01 02:08:50
  TRACK 99 AUDIO
    TITLE "8:cjc040_5682"
    INDEX 01 02:09:34
  TRACK 100 AUDIO
    TITLE "0:"
    INDEX 01 02:10:40
  TRACK 101 AUDIO
    TITLE "9:cjc040_5683"
    INDEX 01 02:11:17
  TRACK 102 AUDIO
    TITLE "0:"
    INDEX 01 02:12:38
  TRACK 103 AUDIO
    TITLE "7:cjc040_5684"
    INDEX 01 02:14:24
  TRACK 104 AUDIO
    TITLE "0:"
    INDEX 01 02:15:29
  TRACK 105 AUDIO
    TITLE "8:cjc040_5685"
    INDEX 01 02:16:11
  TRACK 106 AUDIO
    TITLE "0:"
    INDEX 01 02:17:22
  TRACK 107 AUDIO
    TITLE "9:cjc040_5686"
    INDEX 01 02:17:73
  TRACK 108 AUDIO
    TITLE "0:"
    INDEX 01 02:19:13
